<?xml version="1.0" encoding="UTF-8" standalone="no"?>
<!DOCTYPE svg PUBLIC "-//W3C//DTD SVG 1.1//EN" "http://www.w3.org/Graphics/SVG/1.1/DTD/svg11.dtd">
<svg width="100%" height="100%" viewBox="0 0 256 256" version="1.1" xmlns="http://www.w3.org/2000/svg" xmlns:xlink="http://www.w3.org/1999/xlink" xml:space="preserve" xmlns:serif="http://www.serif.com/" style="fill-rule:evenodd;clip-rule:evenodd;stroke-linejoin:round;stroke-miterlimit:2;">
    <g transform="matrix(3.65714,0,0,3.65714,-54.8571,-54.8571)">
        <rect x="15" y="15" width="70" height="70" style="fill:rgb(255,153,0);fill-rule:nonzero;"/>
    </g>
    <g transform="matrix(2.04838,0.906414,-0.906414,2.04838,105.747,-37.8426)">
        <path d="M60.78,43.44C59.29,44.25 57.43,43.7 56.63,42.22C55.82,40.73 56.37,38.87 57.86,38.07C64.9,34.25 68.18,29.31 68.84,24.48C69.19,21.9 68.79,19.31 67.82,16.91C66.83,14.48 65.26,12.27 63.27,10.49C59.4,7.03 53.97,5.21 48.3,6.62C46,7.19 44.01,8.34 42.27,9.96C40.42,11.68 38.82,13.93 37.42,16.59C36.63,18.09 34.78,18.66 33.29,17.88C31.79,17.09 31.22,15.24 32,13.75C33.72,10.49 35.73,7.69 38.11,5.47C40.6,3.16 43.49,1.5 46.85,0.67C54.65,-1.26 62.08,1.2 67.36,5.92C70.04,8.32 72.17,11.31 73.51,14.61C74.86,17.94 75.41,21.6 74.9,25.31C73.99,31.93 69.75,38.57 60.78,43.44ZM37.32,67.61C25.72,52.03 25.44,37.27 39.52,23.55L29.38,17.95C21.26,14.79 6.36,38.08 12.12,44.3L20.02,56.02L18.39,59.42C17.94,60.43 18.38,61.14 19.48,61.63L20.55,61.92L0,102.59L4.16,111.46L12.48,109.01L14.62,104.85L12.57,101.01L17.09,100.04L18.14,98L15.78,94.4L17.33,91.39L21.84,90.82L23.31,87.97L20.79,84.68L22.4,81.56L27,80.81L33.26,68.86L34.32,69.44C36.16,70.56 37.11,69.84 37.32,67.61ZM59.15,77.38L56.09,88.8L51.84,90.48L50.95,93.81L54.05,96.44L53.24,99.47L49.04,100.95L48.18,104.15L51.19,107.1L50.61,109.27L46.48,111.14L49.24,114.39L48.05,118.82L40.6,122.89L34.78,115.26L45.88,73.83L43.19,73.11C42.64,72.96 42.3,72.39 42.45,71.83L43.58,67.62C35.44,61.45 31.41,50.77 34.21,40.3C37.81,26.85 51.39,18.73 64.85,21.75C64.91,22.47 64.9,23.2 64.8,23.93C64.55,25.75 63.76,27.62 62.3,29.43C62.1,29.67 61.89,29.92 61.67,30.16C57.37,29.88 53.34,32.66 52.18,36.98C51.68,38.84 51.79,40.72 52.38,42.41C52.52,43.01 52.75,43.59 53.05,44.16C53.76,45.46 54.8,46.45 56.02,47.08C56.82,47.61 57.72,48.01 58.69,48.28C63.52,49.57 68.47,46.79 69.91,42.04C71.37,40.75 72.64,39.39 73.73,37.99C75.85,35.26 77.3,32.36 78.16,29.41C84,35.71 86.57,44.78 84.18,53.7C81.38,64.17 72.53,71.41 62.41,72.68L61.28,76.89C61.13,77.44 60.56,77.78 60,77.63L59.15,77.38Z" style="fill:white;fill-rule:nonzero;"/>
    </g>
</svg>
